<svg id="Layer_1" data-name="Layer 1" xmlns="http://www.w3.org/2000/svg" viewBox="0 0 520 203.07"><defs><style>.cls-1{fill:#fff;}</style></defs><path class="cls-1" d="M169.78,39.86h2.93V55.17h-2.93Z"/><path class="cls-1" d="M176.08,39.86H187.3v2.56H179V46.2h7.44v2.56H179v3.85h8.56v2.56H176.08Z"/><path class="cls-1" d="M190.19,39.86h11.23v2.56h-8.3V46.2h7.44v2.56h-7.44v3.85h8.56v2.56H190.19Z"/><path class="cls-1" d="M204.28,39.86h11.23v2.56h-8.29V46.2h7.44v2.56h-7.44v3.85h8.55v2.56H204.28Z"/><path class="cls-1" d="M233.09,42.81a5.24,5.24,0,0,0-4.84.15,4.94,4.94,0,0,0-1.86,1.88,5.35,5.35,0,0,0,0,5.22A5,5,0,0,0,228.25,52a5,5,0,0,0,2.6.69,5.35,5.35,0,0,0,2.2-.49,6.24,6.24,0,0,0,2-1.33l1.73,1.93a9.14,9.14,0,0,1-2.81,1.93,7.76,7.76,0,0,1-3.23.71,8,8,0,0,1-4-1,7.68,7.68,0,0,1-2.89-2.85,7.84,7.84,0,0,1-1-4,7.66,7.66,0,0,1,1.07-4,7.75,7.75,0,0,1,2.92-2.82,8.45,8.45,0,0,1,7.32-.37,7.78,7.78,0,0,1,2.69,1.81L235,44.28A5.73,5.73,0,0,0,233.09,42.81Z"/><path class="cls-1" d="M249.63,40.69a7.84,7.84,0,0,1,3,10.8,7.84,7.84,0,0,1-3,2.85,8.71,8.71,0,0,1-8.29,0,7.74,7.74,0,0,1-2.94-2.85,7.66,7.66,0,0,1-1.07-4,7.63,7.63,0,0,1,4-6.8,8.86,8.86,0,0,1,8.29,0ZM242.93,43A5.24,5.24,0,0,0,241,44.86a5.15,5.15,0,0,0-.7,2.63,5,5,0,0,0,.72,2.65,5.27,5.27,0,0,0,1.9,1.91,5.08,5.08,0,0,0,2.59.7,5,5,0,0,0,2.56-.7A5.35,5.35,0,0,0,250,44.86,5.14,5.14,0,0,0,248.09,43a5,5,0,0,0-2.56-.68A5.13,5.13,0,0,0,242.93,43Z"/><path class="cls-1" d="M256,39.86h3.35l5.07,9.87,5-9.87h3.34V55.17h-2.69v-11l-4.77,9.41h-1.88l-4.79-9.41v11H256Z"/><path class="cls-1" d="M286.88,41.24a4.88,4.88,0,0,1,1.58,3.89,5.28,5.28,0,0,1-1.58,4.08,6.39,6.39,0,0,1-4.48,1.46h-3.34v4.5h-2.94V39.86h6.28A6.62,6.62,0,0,1,286.88,41.24Zm-2.08,6.12a2.59,2.59,0,0,0,.88-2.14,2.49,2.49,0,0,0-.88-2.1,4,4,0,0,0-2.55-.7h-3.19v5.66h3.19A4,4,0,0,0,284.8,47.36Z"/><path class="cls-1" d="M294.2,51.72a3.73,3.73,0,0,0,2.75,1,3.65,3.65,0,0,0,2.73-1,4,4,0,0,0,1-2.85v-9h2.94v9a7.09,7.09,0,0,1-.81,3.47,5.42,5.42,0,0,1-2.31,2.26,7.46,7.46,0,0,1-3.54.79,7.58,7.58,0,0,1-3.57-.79,5.36,5.36,0,0,1-2.33-2.26,7.09,7.09,0,0,1-.81-3.47v-9h2.93v9A3.85,3.85,0,0,0,294.2,51.72Z"/><path class="cls-1" d="M305.05,39.86h12.5v2.6h-4.78V55.17h-2.95V42.46h-4.77Z"/><path class="cls-1" d="M319.14,39.86h11.23v2.56h-8.29V46.2h7.43v2.56h-7.43v3.85h8.55v2.56H319.14Z"/><path class="cls-1" d="M342.82,55.17l-2.65-4.52-.55,0h-3.45v4.5h-2.93V39.86h6.38a6.89,6.89,0,0,1,4.6,1.38,4.81,4.81,0,0,1,1.62,3.89,5.7,5.7,0,0,1-.78,3.06,4.79,4.79,0,0,1-2.26,1.91l3.37,5.07Zm-6.65-7.09h3.45a3.9,3.9,0,0,0,2.54-.72,2.59,2.59,0,0,0,.88-2.14,2.49,2.49,0,0,0-.88-2.1,4,4,0,0,0-2.54-.7h-3.45Z"/><path class="cls-1" d="M361.45,42.68a7.34,7.34,0,0,0-2.18-.39,3.07,3.07,0,0,0-1.66.39,1.23,1.23,0,0,0-.61,1.09,1.44,1.44,0,0,0,.43,1.07,3.48,3.48,0,0,0,1.07.7,17.35,17.35,0,0,0,1.76.6,18.48,18.48,0,0,1,2.55.92,4.41,4.41,0,0,1,1.69,1.35,3.73,3.73,0,0,1,.7,2.37,4.08,4.08,0,0,1-.75,2.44,4.7,4.7,0,0,1-2.08,1.58,7.76,7.76,0,0,1-3,.55,9.42,9.42,0,0,1-3.5-.67,10,10,0,0,1-3-1.78l1.23-2.5a8.89,8.89,0,0,0,2.6,1.69,6.92,6.92,0,0,0,2.69.61,3.46,3.46,0,0,0,1.93-.47A1.46,1.46,0,0,0,362,51a1.43,1.43,0,0,0-.43-1.08,3,3,0,0,0-1.08-.69c-.44-.18-1-.37-1.8-.59a21.94,21.94,0,0,1-2.53-.9,4.4,4.4,0,0,1-1.69-1.32,3.69,3.69,0,0,1-.7-2.33,3.92,3.92,0,0,1,.71-2.33,4.63,4.63,0,0,1,2-1.55,7.76,7.76,0,0,1,3-.54,10.22,10.22,0,0,1,2.95.43,10.09,10.09,0,0,1,2.59,1.19l-1.18,2.56A10.55,10.55,0,0,0,361.45,42.68Z"/><path class="cls-1" d="M378.74,40.69a7.85,7.85,0,0,1,2.94,10.8,7.74,7.74,0,0,1-2.94,2.85,8.71,8.71,0,0,1-8.29,0,7.84,7.84,0,0,1-2.95-2.85,7.75,7.75,0,0,1-1.07-4,7.62,7.62,0,0,1,4-6.8,8.86,8.86,0,0,1,8.29,0ZM372,43a5.22,5.22,0,0,0-1.9,1.89,5.3,5.3,0,0,0,0,5.28,5.35,5.35,0,0,0,1.9,1.91,5.12,5.12,0,0,0,2.6.7,5,5,0,0,0,2.56-.7,5.27,5.27,0,0,0,1.87-1.91,5.21,5.21,0,0,0,.69-2.65,5.14,5.14,0,0,0-.69-2.63A5.21,5.21,0,0,0,377.2,43a5,5,0,0,0-2.56-.68A5.14,5.14,0,0,0,372,43Z"/><path class="cls-1" d="M394.38,42.81a5.24,5.24,0,0,0-4.84.15,4.94,4.94,0,0,0-1.86,1.88,5.35,5.35,0,0,0,0,5.22A5,5,0,0,0,389.54,52a5.06,5.06,0,0,0,2.6.69,5.35,5.35,0,0,0,2.2-.49,6.24,6.24,0,0,0,2-1.33L398,52.75a9.1,9.1,0,0,1-2.8,1.93,7.84,7.84,0,0,1-3.24.71,8,8,0,0,1-4.05-1,7.68,7.68,0,0,1-2.89-2.85,7.84,7.84,0,0,1-1.05-4,7.66,7.66,0,0,1,1.07-4A7.75,7.75,0,0,1,388,40.69a8.45,8.45,0,0,1,7.32-.37,7.92,7.92,0,0,1,2.7,1.81l-1.71,2.15A5.73,5.73,0,0,0,394.38,42.81Z"/><path class="cls-1" d="M400,39.86h2.94V55.17H400Z"/><path class="cls-1" d="M406.28,39.86H417.5v2.56h-8.29V46.2h7.44v2.56h-7.44v3.85h8.55v2.56H406.28Z"/><path class="cls-1" d="M418.84,39.86h12.49v2.6h-4.77V55.17h-2.95V42.46h-4.77Z"/><path class="cls-1" d="M446.19,39.86l-5.58,10.3v5h-2.93v-4.9L432,39.86h3l4.18,7.2,4.12-7.2Z"/><path class="cls-1" d="M127.3,137.7l-.5,0a.83.83,0,0,1-.68-1l21.77-102c.1-.45.77-.64,1.25-.54a.82.82,0,0,1,.68,1L128.17,137a.88.88,0,0,1-.87.66"/><path class="cls-1" d="M72.75,103.13c0,6.11.43,6.32,4.69,6.6l4.4.26.19.1a2.67,2.67,0,0,1,1.12,2.69,2.24,2.24,0,0,1-1.56,2l-.14,0h-.13c-3.46-.16-9.47-.25-16.09-.25-7,0-13,.09-16.49.25H48.6l-.13,0a2.23,2.23,0,0,1-1.56-2A2.65,2.65,0,0,1,48,110.09l.19-.1,4.4-.26c4.26-.28,4.68-.49,4.69-6.61-16.77-1.89-27.22-10-27.22-21.75S39.1,62,55.15,59.83c.05,1.53.1,3.58.13,5.94a25.52,25.52,0,0,0-2.75.85l-.42.16a10.44,10.44,0,0,0-6.62,6.79l0,.1a22.24,22.24,0,0,0-.9,7.43v.29a22.24,22.24,0,0,0,.9,7.43l0,.12A10.21,10.21,0,0,0,50,94.69c3.16,2.1,9.19,3.19,15.17,3.19,6.55,0,13.15-1.3,16-3.81a10.13,10.13,0,0,0,3.62-5.14l0-.11a22.24,22.24,0,0,0,.9-7.43V81.1a22.24,22.24,0,0,0-.9-7.43l0-.1A10.39,10.39,0,0,0,78.2,66.8l-.43-.17a27.15,27.15,0,0,0-5-1.36v29.8A44.13,44.13,0,0,1,57.31,95v-6.9c.14-6.43.28-16.63.12-23.84h0c0-.17-.12-5-.12-5.21,0-4.72-.48-5.22-4-5.61l-5-.58A2.86,2.86,0,0,1,48,48.26l.18-.11.21,0c3.65-.43,8.25-1.24,13-2.29,2.48-.59,4.78-1.34,6.47-1.89a12.1,12.1,0,0,1,2.82-.77A2.43,2.43,0,0,1,73,44.77l.06.19,0,.21c-.19,1.74-.31,5.36-.31,9.69v4.69c17.48,1.7,27.33,9.43,27.33,21.82,0,11.77-10.49,19.9-27.32,21.76M65,34.17C36.85,34.17,14.05,55,14.05,80.74S36.85,127.32,65,127.32s50.92-20.85,50.92-46.58S93.09,34.17,65,34.17"/><path class="cls-1" d="M100.39,124.63h1.28l2.14,4.42,2.12-4.42h1.3v6.54h-1v-5l-2.06,4.3h-.71l-2.06-4.3v5h-1Zm-6,0h5v1h-2v5.57h-1.1V125.6h-2Z"/><path class="cls-1" d="M185.5,78.83H163.39V68.35H220V78.83H197.89v56.24H185.5Z"/><path class="cls-1" d="M223.64,101.71c0-19.92,15.25-34.32,35.74-34.32,10.87,0,20.21,3.91,26.4,11.16l-8,7.53A23.45,23.45,0,0,0,260,78.26c-13.83,0-23.84,9.72-23.84,23.45s10,23.45,23.84,23.45a23.19,23.19,0,0,0,17.82-7.91l8,7.62c-6.19,7.25-15.53,11.15-26.49,11.15C238.89,136,223.64,121.63,223.64,101.71Z"/><path class="cls-1" d="M357,68.35v66.72H344.61v-28.6H310.1v28.6H297.71V68.35H310.1V95.89h34.51V68.35Z"/><path class="cls-1" d="M430.79,92.08c0,14.68-10.87,23.74-28.4,23.74H387.32v19.25H374.93V68.35h27.46C419.92,68.35,430.79,77.31,430.79,92.08Zm-12.49,0c0-8.39-5.62-13.25-16.49-13.25H387.32v26.5h14.49C412.68,105.33,418.3,100.47,418.3,92.08Z"/><path class="cls-1" d="M439.38,101.71c0-19.92,15.25-34.32,35.75-34.32,10.86,0,20.2,3.91,26.4,11.16l-8,7.53a23.45,23.45,0,0,0-17.82-7.82c-13.83,0-23.83,9.72-23.83,23.45s10,23.45,23.83,23.45a23.19,23.19,0,0,0,17.82-7.91l8,7.62C495.33,132.12,486,136,475,136,454.63,136,439.38,121.63,439.38,101.71Z"/><path class="cls-1" d="M16.47,154.83H12.34l.29-1.5h10l-.31,1.5H18.2l-2.12,10.61H14.36Z"/><path class="cls-1" d="M22.56,161.37v.11c0,1.67.93,2.61,2.9,2.61A4.11,4.11,0,0,0,28.3,163l.71,1.2a5.48,5.48,0,0,1-3.68,1.31c-2.72,0-4.4-1.55-4.4-4a5.11,5.11,0,0,1,5.17-5.38,3.75,3.75,0,0,1,4.1,4,6.82,6.82,0,0,1-.12,1.22Zm.17-1.21h5.92A2.34,2.34,0,0,0,26,157.57,3.29,3.29,0,0,0,22.73,160.16Z"/><path class="cls-1" d="M31.52,161.58a5.22,5.22,0,0,1,5.39-5.4,4,4,0,0,1,3.78,2l-1.4.78a2.61,2.61,0,0,0-2.5-1.31,3.61,3.61,0,0,0-3.59,3.87,2.43,2.43,0,0,0,2.74,2.58,3.3,3.3,0,0,0,2.74-1.3l1.21.87a5,5,0,0,1-4,1.88C33.21,165.54,31.52,164,31.52,161.58Z"/><path class="cls-1" d="M51.13,159.23A6,6,0,0,1,51,160.3l-1,5.14H48.34l1-5.14a3.71,3.71,0,0,0,.09-.76c0-1.2-.69-1.87-2.13-1.87a3.23,3.23,0,0,0-3.39,2.92l-1,4.85H41.3l2.56-12.84h1.66l-1,4.74a4.56,4.56,0,0,1,3.24-1.16C49.89,156.18,51.13,157.27,51.13,159.23Z"/><path class="cls-1" d="M62.92,159.23a5.92,5.92,0,0,1-.1,1.07l-1,5.14H60.14l1-5.14a4.57,4.57,0,0,0,.09-.76c0-1.2-.69-1.87-2.13-1.87a3.23,3.23,0,0,0-3.39,2.92l-1,4.85H53.1l1.81-9.17h1.6l-.23,1.17a4.52,4.52,0,0,1,3.32-1.26C61.68,156.18,62.92,157.27,62.92,159.23Z"/><path class="cls-1" d="M66.72,156.27h1.66l-1.82,9.17H64.9ZM67,153.5a1.15,1.15,0,0,1,1.2-1.16,1,1,0,0,1,1,1A1.14,1.14,0,0,1,68,154.5,1,1,0,0,1,67,153.5Z"/><path class="cls-1" d="M69.71,161.58a5.23,5.23,0,0,1,5.4-5.4,3.93,3.93,0,0,1,3.77,2l-1.4.78A2.6,2.6,0,0,0,75,157.64a3.61,3.61,0,0,0-3.6,3.87,2.44,2.44,0,0,0,2.75,2.58,3.33,3.33,0,0,0,2.74-1.3l1.2.87a4.93,4.93,0,0,1-4,1.88C71.4,165.54,69.71,164,69.71,161.58Z"/><path class="cls-1" d="M89.93,156.27l-1.82,9.17H86.52l.23-1.12a4.61,4.61,0,0,1-3.23,1.22,3.78,3.78,0,0,1-4.06-4,5.14,5.14,0,0,1,5.2-5.4,3.48,3.48,0,0,1,3.3,1.65l.31-1.56Zm-2.47,3.94a2.41,2.41,0,0,0-2.73-2.57,3.6,3.6,0,0,0-3.58,3.87,2.43,2.43,0,0,0,2.73,2.58A3.61,3.61,0,0,0,87.46,160.21Z"/><path class="cls-1" d="M93.86,152.6h1.66L93,165.44H91.3Z"/><path class="cls-1" d="M101.15,160.47a7.09,7.09,0,0,1,7.42-7.28,5.2,5.2,0,0,1,4.45,1.88l-1.24,1.07a4,4,0,0,0-3.33-1.41,5.42,5.42,0,0,0-5.57,5.64c0,2.19,1.44,3.67,4.17,3.67a5,5,0,0,0,3.67-1.44l1,1.14a6.38,6.38,0,0,1-4.8,1.84C103.28,165.58,101.15,163.5,101.15,160.47Z"/><path class="cls-1" d="M112.92,161.58a5.22,5.22,0,0,1,5.38-5.4c2.61,0,4.29,1.54,4.29,3.95a5.21,5.21,0,0,1-5.37,5.41C114.61,165.54,112.92,164,112.92,161.58Zm8-1.37a2.41,2.41,0,0,0-2.73-2.57,3.6,3.6,0,0,0-3.58,3.87,2.43,2.43,0,0,0,2.73,2.58A3.61,3.61,0,0,0,120.91,160.21Z"/><path class="cls-1" d="M140.28,159.21a6.47,6.47,0,0,1-.12,1.09l-1,5.14h-1.66l1-5.14a3.92,3.92,0,0,0,.09-.8c0-1.18-.66-1.83-2-1.83a3.11,3.11,0,0,0-3.22,2.87l-1,4.9H130.7l1-5.14a4.49,4.49,0,0,0,.08-.78c0-1.18-.65-1.85-2-1.85-1.69,0-2.81,1-3.21,2.92l-1,4.85h-1.66l1.81-9.17h1.59l-.22,1.14a4.29,4.29,0,0,1,3.18-1.23,3,3,0,0,1,2.95,1.63,4.7,4.7,0,0,1,3.73-1.63C139.06,156.18,140.28,157.27,140.28,159.21Z"/><path class="cls-1" d="M158.59,159.21a6.47,6.47,0,0,1-.12,1.09l-1,5.14H155.8l1-5.14a3.92,3.92,0,0,0,.09-.8c0-1.18-.66-1.83-2-1.83a3.11,3.11,0,0,0-3.22,2.87l-1,4.9H149l1-5.14a4.49,4.49,0,0,0,.08-.78c0-1.18-.65-1.85-2-1.85-1.69,0-2.81,1-3.21,2.92l-1,4.85h-1.66l1.81-9.17h1.6l-.23,1.14a4.29,4.29,0,0,1,3.18-1.23,3,3,0,0,1,2.95,1.63,4.7,4.7,0,0,1,3.73-1.63C157.37,156.18,158.59,157.27,158.59,159.21Z"/><path class="cls-1" d="M170.92,156.27l-1.82,9.17h-1.59l.23-1.18a4.48,4.48,0,0,1-3.29,1.28c-2,0-3.29-1.13-3.29-3.08a5.77,5.77,0,0,1,.11-1.05l1-5.14H164l-1,5.15a3.74,3.74,0,0,0-.09.78c0,1.18.69,1.86,2.09,1.86a3.26,3.26,0,0,0,3.36-2.93l1-4.86Z"/><path class="cls-1" d="M182.11,159.23a5.92,5.92,0,0,1-.1,1.07l-1,5.14h-1.67l1-5.14a4.47,4.47,0,0,0,.08-.76c0-1.2-.69-1.87-2.12-1.87a3.24,3.24,0,0,0-3.4,2.92l-1,4.85h-1.66l1.81-9.17h1.59l-.22,1.17a4.51,4.51,0,0,1,3.32-1.26C180.87,156.18,182.11,157.27,182.11,159.23Z"/><path class="cls-1" d="M185.9,156.27h1.66l-1.82,9.17h-1.66Zm.27-2.77a1.15,1.15,0,0,1,1.2-1.16,1,1,0,0,1,1,1,1.14,1.14,0,0,1-1.21,1.19A1,1,0,0,1,186.17,153.5Z"/><path class="cls-1" d="M191.37,162.51a2.81,2.81,0,0,0-.05.49c0,.71.38,1.14,1.21,1.14a2.23,2.23,0,0,0,1.31-.43l.35,1.26a3.73,3.73,0,0,1-2.13.57,2.22,2.22,0,0,1-2.42-2.3,3.44,3.44,0,0,1,.07-.69l1-4.91h-1.56l.26-1.37H191l.4-2H193l-.4,2h2.64l-.28,1.37h-2.63Z"/><path class="cls-1" d="M205.85,156.27l-6.51,10.17c-1.2,1.87-2.13,2.46-3.57,2.46a3.35,3.35,0,0,1-2.3-.81l.87-1.24a2.1,2.1,0,0,0,1.55.63c.77,0,1.32-.35,2-1.37l.47-.72-2.21-9.12h1.66l1.77,7.33,4.61-7.33Z"/><path class="cls-1" d="M210.24,161.58a5.22,5.22,0,0,1,5.38-5.4c2.62,0,4.29,1.54,4.29,3.95a5.21,5.21,0,0,1-5.36,5.41C211.94,165.54,210.24,164,210.24,161.58Zm8-1.37a2.42,2.42,0,0,0-2.74-2.57,3.6,3.6,0,0,0-3.58,3.87,2.43,2.43,0,0,0,2.73,2.58A3.61,3.61,0,0,0,218.24,160.21Z"/><path class="cls-1" d="M231.08,159.23a5.92,5.92,0,0,1-.1,1.07l-1,5.14H228.3l1-5.14a4.47,4.47,0,0,0,.08-.76c0-1.2-.68-1.87-2.12-1.87a3.23,3.23,0,0,0-3.39,2.92l-1,4.85h-1.66l1.81-9.17h1.6l-.23,1.17a4.52,4.52,0,0,1,3.32-1.26C229.84,156.18,231.08,157.27,231.08,159.23Z"/><path class="cls-1" d="M250.78,153.33l-2.43,12.11h-1.73l1.07-5.36h-6.95l-1.07,5.36h-1.73l2.42-12.11h1.73l-1,5.19h7l1-5.19Z"/><path class="cls-1" d="M253.6,156.27h1.66l-1.82,9.17h-1.66Zm.27-2.77a1.15,1.15,0,0,1,1.2-1.16,1,1,0,0,1,1.05,1,1.14,1.14,0,0,1-1.21,1.19A1,1,0,0,1,253.87,153.5Z"/><path class="cls-1" d="M267.2,156.27l-1.57,7.92c-.66,3.32-2.44,4.71-5.49,4.71a6.45,6.45,0,0,1-4.19-1.3l.92-1.28a5.09,5.09,0,0,0,3.39,1.11,3.29,3.29,0,0,0,3.66-3l.14-.66a4.69,4.69,0,0,1-3.33,1.27c-2.42,0-4.08-1.42-4.08-3.74a5,5,0,0,1,5.23-5.14A3.59,3.59,0,0,1,265.3,158l.33-1.68ZM264.66,160c0-1.48-1-2.37-2.73-2.37a3.47,3.47,0,0,0-3.61,3.58c0,1.48,1,2.38,2.74,2.38A3.47,3.47,0,0,0,264.66,160Z"/><path class="cls-1" d="M278.4,159.23a6,6,0,0,1-.11,1.07l-1,5.14h-1.66l1-5.14a4.47,4.47,0,0,0,.08-.76c0-1.2-.68-1.87-2.12-1.87a3.23,3.23,0,0,0-3.39,2.92l-1,4.85h-1.66l2.56-12.84h1.66l-1,4.74a4.52,4.52,0,0,1,3.23-1.16C277.15,156.18,278.4,157.27,278.4,159.23Z"/><path class="cls-1" d="M280.86,160h4.66l-.3,1.44h-4.63Z"/><path class="cls-1" d="M298.59,156.87c0,3.1-2.18,4.9-5.67,4.9h-3.24l-.72,3.67h-1.74l2.43-12.11h4.49C297,153.33,298.59,154.62,298.59,156.87Zm-1.73.16c0-1.45-1-2.2-2.87-2.2h-2.91L290,160.26h3C295.42,160.26,296.86,159.16,296.86,157Z"/><path class="cls-1" d="M300.91,161.37v.11c0,1.67.93,2.61,2.9,2.61a4.12,4.12,0,0,0,2.84-1.06l.71,1.2a5.48,5.48,0,0,1-3.69,1.31c-2.71,0-4.39-1.55-4.39-4a5.11,5.11,0,0,1,5.17-5.38,3.75,3.75,0,0,1,4.1,4,6.82,6.82,0,0,1-.12,1.22Zm.17-1.21H307a2.34,2.34,0,0,0-2.62-2.59A3.29,3.29,0,0,0,301.08,160.16Z"/><path class="cls-1" d="M316.66,156.18l-.31,1.61a3,3,0,0,0-.43,0c-1.84,0-3.05,1-3.46,3.08l-.92,4.59h-1.66l1.82-9.17h1.59l-.26,1.37A4.22,4.22,0,0,1,316.66,156.18Z"/><path class="cls-1" d="M321.08,155.54l-.15.73h2.66l-.27,1.37H320.7l-1.57,7.8h-1.66l1.57-7.8h-1.57l.26-1.37h1.59l.17-.87a3.25,3.25,0,0,1,3.39-2.91,3.09,3.09,0,0,1,1.92.58l-.69,1.22a1.84,1.84,0,0,0-1.23-.43C321.88,153.86,321.33,154.4,321.08,155.54Z"/><path class="cls-1" d="M323.2,161.58a5.22,5.22,0,0,1,5.38-5.4c2.62,0,4.29,1.54,4.29,3.95a5.21,5.21,0,0,1-5.36,5.41C324.9,165.54,323.2,164,323.2,161.58Zm8-1.37a2.41,2.41,0,0,0-2.73-2.57,3.61,3.61,0,0,0-3.59,3.87,2.43,2.43,0,0,0,2.74,2.58A3.61,3.61,0,0,0,331.2,160.21Z"/><path class="cls-1" d="M341,156.18l-.31,1.61a3,3,0,0,0-.43,0c-1.83,0-3.05,1-3.46,3.08l-.92,4.59h-1.66l1.82-9.17h1.59l-.26,1.37A4.22,4.22,0,0,1,341,156.18Z"/><path class="cls-1" d="M357.56,159.21a6.55,6.55,0,0,1-.13,1.09l-1,5.14h-1.66l1-5.14a4.78,4.78,0,0,0,.09-.8c0-1.18-.66-1.83-2-1.83-1.68,0-2.82.93-3.21,2.87l-1,4.9H348l1-5.14a4.49,4.49,0,0,0,.08-.78c0-1.18-.66-1.85-2-1.85-1.7,0-2.82,1-3.22,2.92l-1,4.85H341.2l1.82-9.17h1.59l-.22,1.14a4.26,4.26,0,0,1,3.18-1.23,3,3,0,0,1,2.94,1.63,4.72,4.72,0,0,1,3.74-1.63C356.32,156.18,357.56,157.27,357.56,159.21Z"/><path class="cls-1" d="M370,156.27l-1.81,9.17h-1.59l.22-1.12a4.59,4.59,0,0,1-3.23,1.22,3.78,3.78,0,0,1-4.05-4,5.13,5.13,0,0,1,5.19-5.4,3.47,3.47,0,0,1,3.3,1.65l.31-1.56Zm-2.47,3.94a2.41,2.41,0,0,0-2.73-2.57,3.6,3.6,0,0,0-3.58,3.87,2.43,2.43,0,0,0,2.73,2.58A3.61,3.61,0,0,0,367.54,160.21Z"/><path class="cls-1" d="M381.21,159.23a6,6,0,0,1-.11,1.07l-1,5.14h-1.66l1-5.14a4.57,4.57,0,0,0,.09-.76c0-1.2-.69-1.87-2.13-1.87a3.23,3.23,0,0,0-3.39,2.92l-1,4.85h-1.66l1.82-9.17h1.59l-.23,1.17a4.53,4.53,0,0,1,3.33-1.26C380,156.18,381.21,157.27,381.21,159.23Z"/><path class="cls-1" d="M383.21,161.58a5.23,5.23,0,0,1,5.4-5.4,3.93,3.93,0,0,1,3.77,2L391,159a2.6,2.6,0,0,0-2.49-1.31,3.61,3.61,0,0,0-3.6,3.87,2.44,2.44,0,0,0,2.75,2.58,3.33,3.33,0,0,0,2.74-1.3l1.2.87a4.93,4.93,0,0,1-4,1.88C384.91,165.54,383.21,164,383.21,161.58Z"/><path class="cls-1" d="M394.59,161.37v.11c0,1.67.93,2.61,2.9,2.61a4.11,4.11,0,0,0,2.84-1.06l.71,1.2a5.48,5.48,0,0,1-3.68,1.31c-2.72,0-4.4-1.55-4.4-4a5.11,5.11,0,0,1,5.18-5.38,3.76,3.76,0,0,1,4.1,4,7.88,7.88,0,0,1-.12,1.22Zm.17-1.21h5.92a2.33,2.33,0,0,0-2.61-2.59A3.3,3.3,0,0,0,394.76,160.16Z"/><path class="cls-1" d="M408.59,160.47a7.08,7.08,0,0,1,7.42-7.28,5.2,5.2,0,0,1,4.45,1.88l-1.25,1.07a4,4,0,0,0-3.32-1.41,5.42,5.42,0,0,0-5.57,5.64c0,2.19,1.43,3.67,4.17,3.67a5,5,0,0,0,3.67-1.44l1,1.14a6.37,6.37,0,0,1-4.79,1.84C410.72,165.58,408.59,163.5,408.59,160.47Z"/><path class="cls-1" d="M420.35,161.58a5.22,5.22,0,0,1,5.38-5.4c2.61,0,4.3,1.54,4.3,3.95a5.22,5.22,0,0,1-5.37,5.41C422.05,165.54,420.35,164,420.35,161.58Zm8-1.37a2.41,2.41,0,0,0-2.73-2.57,3.6,3.6,0,0,0-3.58,3.87,2.43,2.43,0,0,0,2.73,2.58A3.6,3.6,0,0,0,428.34,160.21Z"/><path class="cls-1" d="M447.72,159.21a6.47,6.47,0,0,1-.12,1.09l-1,5.14h-1.66l1-5.14a4.78,4.78,0,0,0,.09-.8c0-1.18-.66-1.83-2-1.83-1.68,0-2.82.93-3.22,2.87l-1,4.9h-1.66l1-5.14a4.56,4.56,0,0,0,.09-.78c0-1.18-.66-1.85-2-1.85-1.7,0-2.82,1-3.22,2.92l-1,4.85h-1.66l1.82-9.17h1.59l-.23,1.14a4.3,4.3,0,0,1,3.19-1.23,3,3,0,0,1,2.94,1.63,4.71,4.71,0,0,1,3.74-1.63C446.49,156.18,447.72,157.27,447.72,159.21Z"/><path class="cls-1" d="M460.15,160.13a5.15,5.15,0,0,1-5.19,5.41,3.51,3.51,0,0,1-3.32-1.66l-1,4.91H449l2.5-12.52h1.59l-.22,1.14a4.52,4.52,0,0,1,3.23-1.23A3.77,3.77,0,0,1,460.15,160.13Zm-1.68.08a2.41,2.41,0,0,0-2.73-2.57,3.59,3.59,0,0,0-3.58,3.87,2.43,2.43,0,0,0,2.73,2.58A3.61,3.61,0,0,0,458.47,160.21Z"/><path class="cls-1" d="M471.86,156.27,470,165.44h-1.59l.23-1.18a4.48,4.48,0,0,1-3.29,1.28c-2,0-3.29-1.13-3.29-3.08a5.71,5.71,0,0,1,.1-1.05l1-5.14h1.66l-1,5.15a4.49,4.49,0,0,0-.08.78c0,1.18.69,1.86,2.09,1.86a3.26,3.26,0,0,0,3.36-2.93l1-4.86Z"/><path class="cls-1" d="M475.68,162.51a2.81,2.81,0,0,0-.05.49c0,.71.38,1.14,1.21,1.14a2.25,2.25,0,0,0,1.31-.43l.35,1.26a3.73,3.73,0,0,1-2.13.57,2.21,2.21,0,0,1-2.42-2.3,2.84,2.84,0,0,1,.07-.69l1-4.91h-1.55l.26-1.37h1.57l.4-2h1.66l-.4,2h2.63l-.27,1.37h-2.64Z"/><path class="cls-1" d="M482.21,156.27h1.66l-1.81,9.17h-1.67Zm.28-2.77a1.14,1.14,0,0,1,1.19-1.16,1,1,0,0,1,1.06,1,1.15,1.15,0,0,1-1.21,1.19A1,1,0,0,1,482.49,153.5Z"/><path class="cls-1" d="M495.05,159.23a5.92,5.92,0,0,1-.1,1.07l-1,5.14h-1.66l1-5.14a4.57,4.57,0,0,0,.09-.76c0-1.2-.7-1.87-2.13-1.87a3.23,3.23,0,0,0-3.39,2.92l-1,4.85h-1.66l1.81-9.17h1.59l-.22,1.17a4.52,4.52,0,0,1,3.32-1.26C493.81,156.18,495.05,157.27,495.05,159.23Z"/><path class="cls-1" d="M507.66,156.27l-1.57,7.92c-.66,3.32-2.44,4.71-5.48,4.71a6.43,6.43,0,0,1-4.19-1.3l.92-1.28a5.08,5.08,0,0,0,3.39,1.11,3.29,3.29,0,0,0,3.65-3l.14-.66a4.67,4.67,0,0,1-3.33,1.27c-2.42,0-4.08-1.42-4.08-3.74a5,5,0,0,1,5.23-5.14,3.59,3.59,0,0,1,3.42,1.77l.33-1.68ZM505.12,160c0-1.48-1-2.37-2.73-2.37a3.47,3.47,0,0,0-3.6,3.58c0,1.48,1,2.38,2.73,2.38A3.46,3.46,0,0,0,505.12,160Z"/></svg>