<?xml version="1.0" encoding="UTF-8" standalone="no"?>
<svg
   xmlns:dc="http://purl.org/dc/elements/1.1/"
   xmlns:cc="http://creativecommons.org/ns#"
   xmlns:rdf="http://www.w3.org/1999/02/22-rdf-syntax-ns#"
   xmlns:svg="http://www.w3.org/2000/svg"
   xmlns="http://www.w3.org/2000/svg"
   xmlns:sodipodi="http://sodipodi.sourceforge.net/DTD/sodipodi-0.dtd"
   xmlns:inkscape="http://www.inkscape.org/namespaces/inkscape"
   width="945pt"
   height="199pt"
   viewBox="0 0 945 199"
   version="1.1"
   id="svg2"
   inkscape:version="0.48.2 r9819"
   sodipodi:docname="paratools_large.svg"
   inkscape:export-filename="/Users/jlinford/Downloads/paratools_large.png"
   inkscape:export-xdpi="121.9"
   inkscape:export-ydpi="121.9">
  <title
     id="title3023">ParaTools Logo</title>
  <metadata
     id="metadata46">
    <rdf:RDF>
      <cc:Work
         rdf:about="">
        <dc:format>image/svg+xml</dc:format>
        <dc:type
           rdf:resource="http://purl.org/dc/dcmitype/StillImage" />
        <dc:title>ParaTools Logo</dc:title>
        <dc:creator>
          <cc:Agent>
            <dc:title>John C. Linford</dc:title>
          </cc:Agent>
        </dc:creator>
        <dc:rights>
          <cc:Agent>
            <dc:title />
          </cc:Agent>
        </dc:rights>
        <dc:contributor>
          <cc:Agent>
            <dc:title>Sameer Shende, Allen Malony</dc:title>
          </cc:Agent>
        </dc:contributor>
      </cc:Work>
    </rdf:RDF>
  </metadata>
  <defs
     id="defs44" />
  <sodipodi:namedview
     pagecolor="#ffffff"
     bordercolor="#666666"
     borderopacity="1"
     objecttolerance="10"
     gridtolerance="10"
     guidetolerance="10"
     inkscape:pageopacity="0"
     inkscape:pageshadow="2"
     inkscape:window-width="1805"
     inkscape:window-height="994"
     id="namedview42"
     showgrid="false"
     inkscape:zoom="1.4120635"
     inkscape:cx="590.60947"
     inkscape:cy="124.69511"
     inkscape:window-x="262"
     inkscape:window-y="179"
     inkscape:window-maximized="0"
     inkscape:current-layer="svg2" />
  <path
     d="M 724.53125 29.875 C 721.94375 29.875 719.3875 29.89375 716.8125 29.90625 C 716.1 32.14375 715.43125 34.65 713.28125 35.9375 C 707.95625 39.5375 701.2875 40.2125 695.0625 40.9375 C 659.4875 43.8 623.75625 35.54375 588.28125 41.03125 C 577.69375 42.90625 566.38125 45.6875 558.65625 53.6875 C 549.21875 62.5125 546.425 75.90625 545.4375 88.28125 C 548.2125 88.26875 550.9625 88.29375 553.75 88.28125 C 555.8 80.14375 562.375 73.91875 570.125 71.09375 C 585.0375 65.39375 601.4125 67.26875 616.9375 68.71875 C 616.5125 85.31875 616.15 101.93125 615.6875 118.53125 C 628.4375 112.11875 641.18125 105.7125 653.96875 99.375 C 654.44375 89.425 654.45625 79.45 655.03125 69.5 C 669.39375 70.3875 684.025 71.18125 698.1875 67.96875 C 704.7375 66.38125 711.54375 63.8625 715.96875 58.5 C 722.95625 50.775 724.18125 39.85 724.53125 29.875 z M 653.8125 108 C 641.0375 114.375 628.30625 120.7875 615.53125 127.125 C 615.53125 133.08472 615.30375 136.03159 615.3125 141.3125 C 629.85051 134.07205 636.47046 130.40297 653.59375 122.09375 C 653.73125 117.40625 653.7875 112.7 653.8125 108 z M 653.53125 130.625 C 640.86875 137.0125 628.18125 143.35625 615.46875 149.65625 C 616.01875 165.98125 616.58125 182.64375 621.53125 198.34375 C 623.33125 204.56875 627.38125 209.925 632.46875 213.875 C 643.26875 221.5375 657.2625 222.525 670.0625 221.25 C 682.9125 220.1625 695.525 213.3375 702 201.9375 C 709.4125 188.7625 710.5625 173.20625 710.6875 158.40625 L 701.09375 158.40625 C 700.39375 169.50625 699.51875 180.9125 694.90625 191.1875 C 692.23125 197.3375 687.1875 202.70625 680.625 204.59375 C 674.1375 206.43125 666.04375 206.5875 660.90625 201.5625 C 656.11875 196.85 655.4875 189.8 654.6875 183.5 C 652.975 165.925 653.48125 148.25 653.53125 130.625 z "
     transform="scale(0.8,0.8)"
     id="path6" />
  <path
     d="M 30.59375 37.53125 L 30.59375 44.375 C 36.73125 45.375 43.5625 45.90625 48.5 50.09375 C 52.9625 55.14375 52.65 62.45625 53 68.78125 C 53.05 108.76875 53.0375 148.7625 53 188.75 C 52.7 195.3 52.8 202.94375 47.875 207.96875 C 43.1 211.96875 36.55 212.44375 30.625 213.15625 C 30.6125 215.43125 30.59375 217.725 30.59375 220 C 60.55625 220.0125 90.525 220.025 120.5 220 L 120.5 213.15625 C 114.125 212.58125 107.1 212.2875 101.9375 208 C 97.525 203.475 97.2125 196.7 96.875 190.75 C 96.6875 173.2125 96.81875 155.675 96.78125 138.125 C 108.74375 138.05 120.75 138.0875 132.6875 137.0625 C 147.8875 135.3375 163.5875 130.6375 174.8125 119.75 C 185.525 109.25 189.56875 93.3625 187.46875 78.75 C 186.31875 66.875 180.44375 55.01875 169.96875 48.78125 C 155.04375 39.76875 137.10625 37.94375 120.03125 37.59375 C 90.23125 37.48125 60.40625 37.55625 30.59375 37.53125 z M 110.375 46.9375 C 116.15339 46.742664 122.00547 47.749219 127.1875 50.25 C 135.525 54.5125 138.675 64.1125 140.375 72.6875 C 142.2125 84.1375 142.3875 96.1 139.4375 107.375 C 137.45 114.9625 132.65625 122.5 124.90625 125.125 C 115.88125 128.2 106.23125 128.45625 96.78125 128.78125 C 96.80625 104.99375 96.75 81.19375 96.8125 57.40625 C 96.6375 53.43125 98.28125 48.83125 102.59375 47.90625 C 105.125 47.363281 107.74846 47.026062 110.375 46.9375 z "
     transform="scale(0.8,0.8)"
     id="path8" />
  <path
     d=" M 791.48 30.03 C 805.12 30.03 818.76 30.03 832.40 30.03 C 832.40 72.34 832.40 114.65 832.40 156.97 C 832.47 160.02 832.45 163.26 833.92 166.03 C 835.92 169.04 839.74 169.78 842.94 170.88 C 842.94 172.58 842.94 174.29 842.96 176.00 C 825.79 176.00 808.63 176.01 791.47 175.99 C 791.47 174.29 791.47 172.59 791.49 170.90 C 794.57 169.82 798.25 169.11 800.25 166.25 C 801.91 163.47 801.81 160.09 801.93 156.97 C 801.92 123.00 801.92 89.03 801.93 55.07 C 801.77 50.39 802.42 45.54 801.00 41.00 C 799.60 37.07 794.94 36.39 791.48 35.24 C 791.47 33.50 791.47 31.77 791.48 30.03 Z"
     id="path10"
     fill="#000000" />
  <path
     d=" M 523.18 79.50 C 532.68 74.81 542.15 70.02 551.64 65.30 C 552.61 67.10 553.43 68.97 554.13 70.90 C 543.72 75.94 533.39 81.18 523.06 86.40 C 512.84 91.50 502.64 96.63 492.42 101.70 C 481.09 107.34 469.73 112.94 458.47 118.71 C 457.41 116.94 456.56 115.05 455.87 113.10 C 468.15 107.13 480.32 100.93 492.54 94.82 C 502.74 89.69 512.95 84.57 523.18 79.50 Z"
     id="path14"
     fill="#f40605" />
  <path
     d="M 251.78125 92.5625 C 244.96022 92.65769 238.15234 93.528906 231.5625 95.21875 C 220 98.49375 207.68125 105.1125 203.46875 117.125 C 201.54375 123.3875 200.90625 130.85 204.71875 136.5625 C 210.90625 145.375 225.19375 146.80625 233.03125 139.40625 C 236.98125 135.78125 238.13125 129.9125 237.03125 124.8125 C 235.99375 120.425 232.575 117.1875 230.3125 113.4375 C 228.5375 109.9 230.8875 105.79375 234.1875 104.21875 C 241.4625 100.49375 250.2875 100.73125 257.9375 103.09375 C 264.7125 105.13125 268.325 112.1875 268.9375 118.8125 C 269.7875 127.3375 269.20625 135.90625 269.34375 144.46875 C 251.11875 149.89375 232.75625 155.61875 216.09375 164.96875 C 207.44375 169.74375 199.775 177.45625 197.6875 187.40625 C 195.9625 196.13125 196.8875 206.18125 202.8125 213.21875 C 209.6 220.64375 220.03125 224.525 230.03125 223.625 C 244.88125 222.6875 258.85625 215.5125 269.34375 205.125 C 270.66875 210.3875 272.26875 216.1375 276.84375 219.5625 C 282.98125 224.1625 291.2375 224.325 298.5 223.0625 C 307.7875 221.3 315.70625 215.5375 321.84375 208.5625 C 320.50625 206.7125 319.1875 204.8625 317.875 203 C 315.65 204.7875 313.2125 207.225 310.0625 206.5 C 307.05 205.2875 306.0875 201.73125 306.1875 198.78125 C 306.1125 177.90625 306.175 157.03125 306.125 136.15625 C 305.9 127.81875 305.2125 119.0875 300.875 111.75 C 296.1375 103.175 286.8 98.58125 277.75 95.96875 C 269.33359 93.613281 260.55114 92.440112 251.78125 92.5625 z M 268.96875 153.8125 C 268.94375 166.9875 269.025 180.16875 268.9375 193.34375 C 264.3 198.68125 258.51875 203.85 251.09375 204.3125 C 244.40625 205.6625 238.4125 199.89375 237 193.71875 C 235.1625 186.10625 236.5125 177.6 241 171.125 C 247.4875 161.775 258.36875 156.8625 268.96875 153.8125 z "
     transform="scale(0.8,0.8)"
     id="path16" />
  <path
     d=" M 328.50 74.64 C 335.95 72.78 344.88 75.08 349.14 81.81 C 352.63 88.00 352.33 96.84 346.97 101.91 C 342.53 106.17 335.06 106.35 330.15 102.78 C 326.16 100.03 324.05 95.28 319.92 92.72 C 316.67 91.97 313.69 94.30 311.55 96.48 C 307.28 100.80 306.02 107.09 306.01 112.96 C 305.98 126.96 305.95 140.97 306.02 154.97 C 306.26 159.06 306.14 163.72 308.93 167.05 C 312.37 170.00 317.20 170.19 321.48 170.86 C 321.48 172.57 321.48 174.28 321.49 176.00 C 302.29 176.00 283.10 176.00 263.90 176.00 C 263.90 174.30 263.90 172.60 263.91 170.90 C 267.94 170.21 273.31 169.30 274.41 164.59 C 275.77 158.51 275.26 152.20 275.40 146.02 C 275.38 128.68 275.43 111.35 275.38 94.02 C 275.23 90.93 275.19 87.40 272.94 85.01 C 270.50 82.75 267.01 82.41 263.91 81.76 C 263.90 80.02 263.90 78.28 263.91 76.54 C 277.58 76.54 291.25 76.54 304.93 76.54 C 304.93 82.18 304.92 87.82 304.95 93.46 C 311.34 85.77 318.20 76.94 328.50 74.64 Z"
     id="path18"
     fill="#000000" />
  <path
     d="M 508.125 92.625 C 506.21658 92.621582 504.32656 92.665625 502.4375 92.75 C 489.375 93.4125 475.88125 97.175 465.90625 106 C 458.45625 112.5875 455.075 123.60625 458 133.15625 C 462.125 144.56875 478.6 147.6375 487.4375 139.9375 C 492.0625 136.15 493.375 129.375 491.75 123.8125 C 490.4375 119.9 487.43125 116.93125 485.34375 113.46875 C 483.51875 109.95625 485.9 105.825 489.1875 104.25 C 496.475 100.5 505.325 100.725 513 103.125 C 519.725 105.1625 523.26875 112.14375 523.90625 118.71875 C 524.78125 127.26875 524.2125 135.89375 524.375 144.46875 C 506.1125 149.90625 487.6875 155.64375 471 165.03125 C 462.0125 169.98125 454.1375 178.2375 452.4375 188.6875 C 451.0875 197.375 452.24375 207.35 458.53125 214 C 465.35625 220.9125 475.3875 224.5125 485.0625 223.625 C 499.9 222.675 513.86875 215.525 524.34375 205.125 C 525.65625 210.4 527.275 216.09375 531.8125 219.53125 C 537.7 223.99375 545.63125 224.29375 552.65625 223.21875 C 562.26875 221.64375 570.53125 215.7625 576.84375 208.5625 C 575.50625 206.7125 574.1875 204.8625 572.875 203 C 570.65 204.775 568.2625 207.2 565.125 206.5 C 561.5625 205.1125 561 200.79375 561.125 197.46875 C 561.0375 175.80625 561.375 154.13125 561 132.46875 C 560.85 120.95625 556.9 108.4125 546.625 102.0625 C 535.14062 95.01875 521.48396 92.648926 508.125 92.625 z M 523.96875 153.8125 C 523.94375 166.975 523.975 180.15 523.9375 193.3125 C 519.3125 198.725 513.475 203.89375 506 204.34375 C 499.3 205.63125 493.35625 199.8125 491.96875 193.625 C 490.05625 185.425 491.75625 176.2375 497.09375 169.625 C 503.70625 161.2125 513.93125 156.7125 523.96875 153.8125 z "
     transform="scale(0.8,0.8)"
     id="path20" />
  <path
     d="M 781.125 92.28125 C 777.20117 92.331445 773.29688 92.734375 769.46875 93.4375 C 752.11875 96.5625 737.35 108.73125 729.0625 124.03125 C 721.125 138.65625 719.48125 156.04375 722.15625 172.28125 C 725.10625 189.83125 735.5875 206.08125 750.6875 215.59375 C 764.6375 224.34375 782.2625 225.95 798.0625 222.0625 C 811.55 218.7625 823.075 209.6625 830.75 198.25 C 841.7625 182.55 844.80625 162.2625 841.40625 143.625 C 838.34375 126.8875 828.59375 111.36875 814.53125 101.71875 C 804.75313 95.04375 792.89648 92.130664 781.125 92.28125 z M 781.65625 101.03125 C 785.6166 100.99082 789.62188 102.12812 792.6875 104.6875 C 797.25 108.725 799.13125 114.8375 800.34375 120.625 C 802.73125 133.175 803 146.0125 803.0625 158.75 C 802.9625 171.45 802.69375 184.21875 800.28125 196.71875 C 799.06875 202.44375 797.03125 208.56875 792.15625 212.21875 C 785.75625 216.58125 776.06875 216.5625 770.40625 210.9375 C 765.18125 205.7375 763.25 198.23125 762.25 191.15625 C 760.625 178.76875 760.6 166.24375 760.625 153.78125 C 760.875 141.98125 760.95 130.01875 763.6875 118.46875 C 765.4875 111.16875 769.8 103.21875 777.75 101.46875 C 779.025 101.2 780.33613 101.04473 781.65625 101.03125 z "
     transform="scale(0.8,0.8)"
     id="path22" />
  <path
     d="M 916.0625 92.28125 C 912.12891 92.337305 908.20938 92.75625 904.375 93.46875 C 886.75 96.68125 871.78125 109.2 863.59375 124.875 C 856.03125 139.3375 854.5375 156.39375 857.1875 172.34375 C 860.15 189.89375 870.65 206.1375 885.75 215.625 C 899.975 224.5125 917.975 226.0375 934 221.8125 C 948 218.125 959.6875 208.1375 967.25 196 C 977.1125 180.6125 979.6125 161.35 976.375 143.5625 C 973.3 126.8625 963.56875 111.375 949.53125 101.75 C 939.73437 95.046875 927.86328 92.113086 916.0625 92.28125 z M 916.625 101.03125 C 920.57656 100.98848 924.59062 102.1375 927.65625 104.6875 C 932.24375 108.7375 934.11875 114.875 935.34375 120.6875 C 937.71875 133.2 938.0125 146.00625 938.0625 158.71875 C 937.975 171.33125 937.675 184.0625 935.3125 196.5 C 934.1125 202.3 932.1125 208.4875 927.1875 212.1875 C 920.775 216.575 911.06875 216.575 905.40625 210.9375 C 900.51875 206.1 898.51875 199.14375 897.46875 192.53125 C 895.60625 179.70625 895.6125 166.7375 895.625 153.8125 C 895.875 142.0125 895.9625 130.05 898.6875 118.5 C 900.4875 111.1875 904.7875 103.21875 912.75 101.46875 C 914.02188 101.20312 915.30781 101.04551 916.625 101.03125 z "
     transform="scale(0.8,0.8)"
     id="path24" />
  <path
     d=" M 863.41 82.34 C 872.47 73.75 886.25 72.69 897.89 75.44 C 902.60 76.30 907.11 78.45 911.95 78.47 C 914.50 78.62 915.72 76.21 916.81 74.34 C 918.33 74.33 919.86 74.33 921.41 74.33 C 921.41 84.73 921.41 95.14 921.41 105.55 C 919.57 105.55 917.74 105.55 915.93 105.55 C 913.81 98.40 910.23 91.46 904.38 86.67 C 899.13 82.22 891.79 80.36 885.07 81.83 C 878.61 83.17 873.86 90.57 876.04 96.95 C 877.57 101.35 881.23 104.58 885.17 106.85 C 894.77 112.37 905.45 115.96 914.46 122.51 C 921.04 127.29 925.61 134.90 926.22 143.07 C 927.35 153.28 922.99 163.65 915.66 170.70 C 909.98 176.29 901.85 178.60 894.07 178.89 C 885.42 179.64 877.07 176.76 869.04 173.96 C 867.16 173.40 865.13 172.32 863.18 173.20 C 860.88 174.39 859.92 176.97 858.60 179.04 C 856.89 179.05 855.18 179.05 853.49 179.06 C 853.49 167.14 853.48 155.22 853.49 143.30 C 855.48 143.30 857.49 143.30 859.50 143.31 C 861.25 150.87 863.95 158.76 870.00 163.99 C 877.62 170.70 889.18 173.90 898.72 169.58 C 907.18 165.21 907.13 151.70 899.25 146.73 C 886.84 138.66 871.43 135.05 861.03 124.00 C 850.17 112.58 851.89 92.69 863.41 82.34 Z"
     id="path26"
     fill="#000000" />
  <path
     d="m 551.5,83.3 c 1.09,1.76 1.96,3.64 2.63,5.6 -10.5,5.06 -20.87,10.39 -31.31,15.59 -10.13,5.11 -20.27,10.19 -30.44,15.23 -11.37,5.61 -22.68,11.36 -34.05,16.97 -0.94,-1.8 -1.75,-3.68 -2.45,-5.58 33.68158,-16.8751 64.83361,-32.419492 95.62,-47.81 z"
     id="path32"
     inkscape:connector-curvature="0"
     style="fill:#f40605"
     sodipodi:nodetypes="ccccccc" />
</svg>
